# xmcd
#
# Track frame offsets:
# 150
# 14915
# 29370
# 48214
# 64864
# 84744
# 104338
# 123613
# 140745
# 160145
# 187118
# 206040
#
# Disc length: 3174 seconds
#
#
# Revision: 4
# Processed by: cddbd v1.5.1PL0 Copyright (c) Steve Scherf et al.
# Submitted via: FreeRIP 2.942 
#
DISCID=b50c640c
DTITLE=Namie Amuro - Queen of Hip Pop
DYEAR=20050713
DGENRE=J-Pop
TTITLE0=Queen of Hip Pop
TTITLE1=WANT ME, WANT ME
TTITLE2=WoWa
TTITLE3=I Wanna Show You My Love
TTITLE4=GIRL TALK
TTITLE5=Free
TTITLE6=My Darling
TTITLE7=Ups and Downs duet with Nao'ymt
TTITLE8=I Love You
TTITLE9=ALL FOR YOU
TTITLE10=ALARM
TTITLE11=No
EXTD=YEAR: 20050713
EXTT0=
EXTT1=
EXTT2=
EXTT3=
EXTT4=
EXTT5=
EXTT6=
EXTT7=
EXTT8=
EXTT9=
EXTT10=
EXTT11=
PLAYORDER=
